<svg width="108" height="108" viewBox="0 0 108 108" fill="none" xmlns="http://www.w3.org/2000/svg">
<path d="M45.5 30.5768L68.0526 22.3683C70.1285 21.6127 72.4239 22.6831 73.1795 24.759L75.9156 32.2765L49.6042 41.8531L45.5 30.5768Z" fill="#F5A3A3"/>
<path d="M70.3604 25.785C70.1715 25.2661 69.5977 24.9985 69.0787 25.1874L49.3451 32.3698L51.3973 38.008L72.0705 30.4835L70.3604 25.785ZM75.9156 32.2765L49.6042 41.8531L45.5 30.5768L68.0526 22.3683C70.1285 21.6127 72.4239 22.6831 73.1795 24.759L75.9156 32.2765Z" fill="#CF1717"/>
<path d="M58.4155 30.5767L35.8629 22.3682C33.787 21.6126 31.4916 22.683 30.7361 24.7589L27.9999 32.2764L54.3113 41.853L58.4155 30.5767Z" fill="#F5A3A3"/>
<path d="M33.5551 25.7849C33.744 25.2659 34.3179 24.9984 34.8368 25.1873L54.5704 32.3697L52.5183 38.0078L31.845 30.4834L33.5551 25.7849ZM27.9999 32.2764L54.3113 41.853L58.4155 30.5767L35.8629 22.3682C33.787 21.6126 31.4916 22.683 30.7361 24.7589L27.9999 32.2764Z" fill="#DD1818"/>
<path d="M28.6958 37.5992C29.0794 35.4236 31.1543 33.9709 33.3298 34.3545L80.6006 42.6897C82.7761 43.0734 84.2288 45.148 83.8452 47.3235L81.8157 58.8328C82.2998 59.0988 84.6663 60.1572 87.416 57.2288V57.229C87.9156 56.6942 88.4507 56.2283 89.0068 55.8575C91.764 54.0193 93.9993 55.2156 93.9993 58.5293C93.9992 61.343 92.3876 64.7782 90.2134 66.8763C86.626 70.5423 80.6933 70.5552 79.7524 70.5332L77.5938 82.7766C77.2101 84.9522 75.1355 86.4049 72.96 86.0213L25.6892 77.6861C25.6723 77.6831 25.6555 77.6797 25.6387 77.6765C23.4483 77.3198 22.0001 76.7026 22 76.0003C22 75.7175 22.2348 75.4485 22.6582 75.2046C22.3986 74.5429 22.3121 73.8036 22.4446 73.0523L28.6958 37.5992Z" fill="#B81414"/>
<path d="M90.6707 60.748C90.6707 61.8526 89.9257 63.2447 89.0066 63.8574C88.0876 64.4701 87.3425 64.0714 87.3425 62.9668C87.3425 61.8622 88.0876 60.4701 89.0066 59.8574C89.9257 59.2447 90.6707 59.6434 90.6707 60.748Z" fill="#E82E2E"/>
<path d="M78 30C80.2091 30 82 31.7909 82 34V70C82 72.2091 80.2091 74 78 74H30C25.5817 74 22 74.8954 22 76V32C22 30.8954 25.5817 30 30 30H78Z" fill="#E82E2E"/>
<path d="M51.2008 54.25C51.615 53.5325 52.5324 53.2867 53.2498 53.7009C53.9449 54.1022 54.1973 54.9757 53.8358 55.6822L53.762 55.8178C53.4005 56.5242 53.6529 57.3977 54.3479 57.799C55.043 58.2003 55.9256 57.9821 56.3567 57.3158L56.4372 57.1841C56.8683 56.5178 57.751 56.2997 58.446 56.7009C59.1634 57.1151 59.4092 58.0325 58.995 58.75C57.7524 60.9023 55.0002 61.6397 52.8479 60.3971C50.6956 59.1544 49.9582 56.4023 51.2008 54.25Z" fill="#8A0F0F"/>
<path d="M52.795 54.25C52.3808 53.5325 51.4634 53.2867 50.746 53.7009C50.051 54.1022 49.7986 54.9757 50.1601 55.6822L50.2339 55.8178C50.5954 56.5242 50.343 57.3977 49.6479 57.799C48.9529 58.2003 48.0702 57.9821 47.6392 57.3158L47.5586 57.1841C47.1276 56.5178 46.2449 56.2997 45.5499 56.7009C44.8324 57.1151 44.5866 58.0325 45.0008 58.75C46.2435 60.9023 48.9956 61.6397 51.1479 60.3971C53.3002 59.1544 54.0377 56.4023 52.795 54.25Z" fill="#8A0F0F"/>
<path d="M53.2989 56.75C52.7216 57.75 51.2782 57.75 50.7009 56.75L48.1028 52.25C47.5254 51.25 48.2471 50 49.4018 50L54.598 50C55.7527 50 56.4744 51.25 55.897 52.25L53.2989 56.75Z" fill="#8A0F0F"/>
<path d="M40.4999 40.5C43.7321 40.5 46.4561 42.6167 47.4233 45.5269C47.6845 46.313 47.2592 47.162 46.4731 47.4233C45.687 47.6846 44.8379 47.2592 44.5766 46.4731C43.9982 44.7328 42.3813 43.5 40.4999 43.5C38.6186 43.5 37.0016 44.7328 36.4233 46.4731C36.162 47.2592 35.3129 47.6846 34.5268 47.4233C33.7407 47.162 33.3153 46.313 33.5766 45.5269C34.5438 42.6167 37.2678 40.5 40.4999 40.5Z" fill="#8A0F0F"/>
<path d="M63.4999 40.5C66.7321 40.5 69.4561 42.6167 70.4233 45.5269C70.6845 46.313 70.2592 47.162 69.4731 47.4233C68.687 47.6846 67.8379 47.2592 67.5766 46.4731C66.9982 44.7328 65.3813 43.5 63.4999 43.5C61.6186 43.5 60.0016 44.7328 59.4233 46.4731C59.162 47.2592 58.3129 47.6846 57.5268 47.4233C56.7407 47.162 56.3153 46.313 56.5766 45.5269C57.5438 42.6167 60.2678 40.5 63.4999 40.5Z" fill="#8A0F0F"/>
<path d="M26 55C25.4477 55 25 54.5523 25 54C25 53.4477 25.4477 53 26 53H42C42.5523 53 43 53.4477 43 54C43 54.5523 42.5523 55 42 55H26Z" fill="#8A0F0F"/>
<path d="M26.3511 60.9363C25.834 61.1302 25.2576 60.8682 25.0637 60.3511C24.8698 59.834 25.1318 59.2575 25.6489 59.0636L41.6488 53.0637C42.1659 52.8698 42.7423 53.1318 42.9362 53.6489C43.1302 54.166 42.8681 54.7424 42.351 54.9363L26.3511 60.9363Z" fill="#8A0F0F"/>
<path d="M61.649 54.9364C61.1319 54.7425 60.8699 54.1661 61.0638 53.6489C61.2577 53.1318 61.8341 52.8698 62.3512 53.0637L78.3511 59.0637C78.8682 59.2576 79.1302 59.834 78.9363 60.3511C78.7424 60.8683 78.166 61.1303 77.6489 60.9364L61.649 54.9364Z" fill="#8A0F0F"/>
<path d="M78 55C78.5523 55 79 54.5523 79 54C79 53.4477 78.5523 53 78 53H62C61.4477 53 61 53.4477 61 54C61 54.5523 61.4477 55 62 55H78Z" fill="#8A0F0F"/>
</svg>
