<svg width="108" height="108" viewBox="0 0 108 108" fill="none" xmlns="http://www.w3.org/2000/svg">
<path fill-rule="evenodd" clip-rule="evenodd" d="M75 31.0001C78.3137 31.0001 81 33.6864 81 37.0001V44.4339C81.8278 45.6739 82.1977 47.2224 81.9185 48.8065L81 54.0147V55.8692C81.2385 55.7207 81.5023 55.5135 81.7856 55.2232L81.864 55.1412C82.3815 54.5878 82.9573 54.0824 83.5825 53.6656L83.7239 53.5736C85.1958 52.6378 87.0298 52.1726 88.6753 53.0533C90.3738 53.9624 90.9907 55.8341 90.9907 57.6305L90.9895 57.7735C90.9384 60.7815 89.2885 64.1632 87.1213 66.2555L87.1211 66.2552C85.2162 68.1795 82.7376 69.0841 80.7588 69.5221C80.6417 69.548 80.5255 69.572 80.4106 69.5951C79.8487 70.7645 78.9192 71.7235 77.7715 72.3223L76.709 78.3509C76.1335 81.6141 73.0215 83.7931 69.7583 83.2179L30.3657 76.2718C30.328 76.2652 30.292 76.2576 30.2576 76.2508C29.124 76.0893 28.0601 75.8434 27.2224 75.4942C26.8046 75.32 26.3313 75.075 25.9299 74.7176C25.538 74.3686 25.0098 73.7183 25.0005 72.7752C25.0005 72.7766 25.0007 72.778 25.0007 72.7794C25.0006 72.7696 25 72.7599 25 72.7501V34.5001C25 33.8368 25.3232 33.2494 25.8203 32.8856C26.2266 32.4885 26.6978 32.2406 27.0352 32.0872C27.6048 31.8283 28.2727 31.6301 28.9683 31.4781C29.7466 31.308 30.6353 31.1794 31.5925 31.0987C31.5854 31.0993 31.5784 31.0998 31.5713 31.1004L32.6726 28.0748L32.7275 27.93C33.9136 24.9114 37.2979 23.3732 40.363 24.4888L52.8337 29.0277L65.3047 24.4888C68.4185 23.3555 71.8617 24.9609 72.9951 28.0748L74.0598 31.0001H75ZM34.8474 73.0001L70.4529 79.2784C71.5406 79.4701 72.5777 78.7437 72.7695 77.6561L73.5906 73.0001H34.8474ZM34 35.0001C32.3461 35.0001 30.8829 35.1543 29.8225 35.3861C29.4849 35.4599 29.2118 35.5362 29 35.6082V69.4718C30.4021 69.1686 32.1493 69.0001 34 69.0001H75L75.103 68.9974C76.1256 68.9455 76.9454 68.1256 76.9973 67.1031L77 67.0001V37.0001C77 35.8955 76.1046 35.0001 75 35.0001H34ZM86.782 56.5904C86.6812 56.5851 86.3996 56.6115 85.8818 56.9412L85.8013 56.9937C85.4702 57.2144 85.1253 57.5101 84.7834 57.8761C84.7824 57.8772 84.7811 57.8783 84.78 57.8795L84.6406 58.025C83.4435 59.2483 82.1848 59.8799 81 60.1214V65.3201C82.1999 64.9382 83.3456 64.358 84.219 63.5015L84.343 63.3775C85.8843 61.8895 86.9907 59.4316 86.9907 57.6305L86.9897 57.5343C86.9769 56.9198 86.8422 56.671 86.782 56.5904ZM46.5574 31.0001L38.9949 28.2476C37.9893 27.8817 36.8807 28.3724 36.469 29.347L36.4314 29.4429L35.8645 31.0001H46.5574ZM69.803 31.0001L69.2363 29.4429C68.8586 28.4051 67.7109 27.8698 66.6729 28.2476L59.1104 31.0001H69.803Z" fill="black"/>
<path d="M55.165 51C56.3197 51.0001 57.0412 52.25 56.4639 53.25L54.6943 56.3145C54.5983 56.7617 54.7947 57.2387 55.2122 57.4797C55.7303 57.7788 56.3927 57.6015 56.6919 57.0835C57.1061 56.3661 58.0235 56.1202 58.741 56.5344C59.4584 56.9487 59.7042 57.8661 59.29 58.5835C58.1625 60.5364 55.6651 61.2054 53.7122 60.0779C53.4495 59.9262 53.2103 59.7495 52.9954 59.553C52.7804 59.7495 52.5414 59.9263 52.2788 60.0779C50.3258 61.2055 47.8283 60.5365 46.7007 58.5835C46.2865 57.8661 46.5324 56.9487 47.2498 56.5344C47.9672 56.1202 48.8846 56.3661 49.2988 57.0835C49.598 57.6016 50.2607 57.7789 50.7788 57.4797C51.2042 57.2341 51.3997 56.7436 51.2905 56.2891L49.5359 53.25C48.9586 52.25 49.6801 51.0001 50.8347 51H55.165Z" fill="black"/>
<path d="M43.2499 42.5C46.0011 42.5 48.4844 44.0694 49.4008 46.4639C49.6968 47.2376 49.3097 48.1048 48.536 48.4009C47.7623 48.697 46.8951 48.3098 46.599 47.5361C46.1806 46.4427 44.9148 45.5 43.2499 45.5C41.5849 45.5 40.3192 46.4427 39.9008 47.5361C39.6047 48.3098 38.7374 48.697 37.9637 48.4009C37.1901 48.1048 36.8029 47.2376 37.099 46.4639C38.0153 44.0694 40.4987 42.5 43.2499 42.5Z" fill="black"/>
<path d="M62.7499 42.5C65.5011 42.5 67.9844 44.0694 68.9008 46.4639C69.1968 47.2376 68.8097 48.1048 68.036 48.4009C67.2623 48.697 66.3951 48.3098 66.099 47.5361C65.6806 46.4427 64.4148 45.5 62.7499 45.5C61.0849 45.5 59.8192 46.4427 59.4008 47.5361C59.1047 48.3098 58.2374 48.697 57.4637 48.4009C56.6901 48.1048 56.3029 47.2376 56.599 46.4639C57.5153 44.0694 59.9987 42.5 62.7499 42.5Z" fill="black"/>
<path d="M33 55C32.1716 55 31.5 54.3284 31.5 53.5C31.5 52.6716 32.1716 52 33 52H44.25C45.0784 52 45.75 52.6716 45.75 53.5C45.75 54.3284 45.0784 55 44.25 55H33Z" fill="black"/>
<path d="M33.6106 59.8701C32.8538 60.2073 31.9671 59.8671 31.6299 59.1104C31.2928 58.3537 31.6329 57.467 32.3896 57.1298L43.6118 52.1298C44.3685 51.7926 45.2553 52.1328 45.5924 52.8895C45.9296 53.6462 45.5894 54.533 44.8327 54.8701L33.6106 59.8701Z" fill="black"/>
<path d="M60.8488 54.8768C60.0885 54.5478 59.7389 53.6647 60.0678 52.9044C60.3968 52.1441 61.2798 51.7945 62.0401 52.1234L73.5957 57.1233C74.356 57.4523 74.7056 58.3353 74.3767 59.0956C74.0477 59.8559 73.1647 60.2056 72.4043 59.8766L60.8488 54.8768Z" fill="black"/>
<path d="M73 52C73.8284 52 74.5 52.6716 74.5 53.5C74.5 54.3284 73.8284 55 73 55H61.5C60.6716 55 60 54.3284 60 53.5C60 52.6716 60.6716 52 61.5 52H73Z" fill="black"/>
</svg>
