<svg width="432" height="432" viewBox="0 0 432 432" fill="none" xmlns="http://www.w3.org/2000/svg">
<mask id="mask0_56_1138" style="mask-type:alpha" maskUnits="userSpaceOnUse" x="100" y="84" width="264" height="264">
<path d="M364 348H100V291C100 295.418 103.582 299 108 299C111.047 299 113.694 297.296 115.045 294.79C115.705 294.515 116.715 294.168 118.142 293.812C122.408 292.745 128.725 292 136 292H300C313.048 292 323.664 281.588 323.992 268.619L324 268V148C324 134.745 313.255 124 300 124H136C128.511 124 121.477 124.687 115.873 125.912C113.091 126.52 110.419 127.313 108.141 128.349C106.791 128.962 104.906 129.953 103.281 131.542C101.293 132.997 100 135.347 100 138V84H364V348Z" fill="black"/>
</mask>
<g mask="url(#mask0_56_1138)">
<path d="M263.955 105.472L261.219 97.9541L261.219 97.9541L263.955 105.472ZM284.463 115.035L291.98 112.299L291.98 112.299L284.463 115.035ZM292.671 137.588L295.407 145.105C299.559 143.594 301.7 139.004 300.188 134.852L292.671 137.588ZM227.484 161.312L224.748 153.795C221.346 155.033 219.199 158.403 219.515 162.01C219.83 165.617 222.529 168.562 226.095 169.191L227.484 161.312ZM306.816 175.302L308.206 167.423L308.206 167.423L306.816 175.302ZM319.795 193.837L327.673 195.226L327.673 195.226L319.795 193.837ZM313.133 231.618L305.254 230.229C304.632 233.757 306.431 237.268 309.658 238.824L313.133 231.618ZM333.288 226.041H341.288C341.288 222.759 339.284 219.811 336.233 218.603C333.182 217.395 329.702 218.173 327.456 220.565L333.288 226.041ZM333.288 226.042H325.288C325.288 229.327 327.297 232.279 330.353 233.484C333.409 234.689 336.891 233.904 339.134 231.503L333.288 226.042ZM338.768 221.318L334.33 214.662L334.33 214.662L338.768 221.318ZM355.963 230.521L363.963 230.522V230.521H355.963ZM342.929 259.266L337.372 253.51C337.318 253.563 337.264 253.616 337.211 253.671L342.929 259.266ZM306.035 271.871L306.185 263.872C302.247 263.799 298.841 266.603 298.157 270.482L306.035 271.871ZM298.957 312.014L306.835 313.403L306.835 313.403L298.957 312.014ZM280.422 324.992L279.033 332.871L279.033 332.871L280.422 324.992ZM122.853 297.208L121.463 305.086L121.463 305.086L122.853 297.208ZM122.358 297.112L123.99 289.281C123.816 289.244 123.641 289.214 123.466 289.189L122.358 297.112ZM108.001 291H100.001V291L108.001 291ZM110.97 287.859L114.531 295.023C118.353 293.123 120.01 288.558 118.297 284.649L110.97 287.859ZM109.874 278.673L101.996 277.284H101.996L109.874 278.673ZM130.712 160.496L122.833 159.107L122.833 159.107L130.712 160.496ZM149.247 147.518L150.636 139.639L150.636 139.639L149.247 147.518ZM164.832 150.266L163.443 158.144C167.528 158.864 171.486 156.343 172.559 152.336C173.633 148.329 171.466 144.167 167.568 142.748L164.832 150.266ZM130 137.588L122.482 134.852C120.971 139.004 123.112 143.594 127.264 145.105L130 137.588ZM138.208 115.035L130.69 112.299L130.69 112.299L138.208 115.035ZM158.716 105.472L161.452 97.9542L161.452 97.9541L158.716 105.472ZM211.335 124.624L208.599 132.142C210.366 132.785 212.304 132.785 214.071 132.142L211.335 124.624ZM263.955 105.472L266.691 112.989C270.843 111.478 275.434 113.619 276.945 117.771L284.463 115.035L291.98 112.299C287.447 99.8439 273.675 93.4206 261.219 97.9541L263.955 105.472ZM284.463 115.035L276.945 117.771L285.153 140.324L292.671 137.588L300.188 134.852L291.98 112.299L284.463 115.035ZM292.671 137.588L289.935 130.07L224.748 153.795L227.484 161.312L230.22 168.83L295.407 145.105L292.671 137.588ZM227.484 161.312L226.095 169.191L305.427 183.18L306.816 175.302L308.206 167.423L228.874 153.434L227.484 161.312ZM306.816 175.302L305.427 183.18C309.778 183.948 312.684 188.097 311.916 192.448L319.795 193.837L327.673 195.226C329.975 182.173 321.259 169.725 308.206 167.423L306.816 175.302ZM319.795 193.837L311.916 192.448L305.254 230.229L313.133 231.618L321.011 233.007L327.673 195.226L319.795 193.837ZM313.133 231.618L309.658 238.824C311.457 239.691 315.614 241.317 321.105 240.893C326.827 240.452 333.181 237.843 339.12 231.517L333.288 226.041L327.456 220.565C324.09 224.15 321.391 224.824 319.875 224.941C318.127 225.075 316.86 224.534 316.607 224.412L313.133 231.618ZM333.288 226.041H325.288V226.042H333.288H341.288V226.041H333.288ZM333.288 226.042L339.134 231.503C340.501 230.04 341.881 228.858 343.205 227.975L338.768 221.318L334.33 214.662C331.823 216.333 329.516 218.361 327.442 220.581L333.288 226.042ZM338.768 221.318L343.205 227.975C346.723 225.63 347.722 226.625 347.152 226.319C346.581 226.014 347.963 226.293 347.963 230.521H355.963H363.963C363.963 223.336 361.496 215.849 354.701 212.212C347.907 208.576 340.309 210.676 334.33 214.662L338.768 221.318ZM355.963 230.521L347.963 230.521C347.963 237.726 343.538 247.558 337.372 253.51L342.929 259.266L348.485 265.021C357.292 256.519 363.963 242.695 363.963 230.522L355.963 230.521ZM342.929 259.266L337.211 253.671C332.635 258.347 326.063 261.031 319.578 262.466C313.193 263.879 307.711 263.901 306.185 263.872L306.035 271.871L305.885 279.87C308.109 279.911 314.966 279.873 323.036 278.088C331.006 276.324 341.006 272.669 348.647 264.86L342.929 259.266ZM306.035 271.871L298.157 270.482L291.079 310.625L298.957 312.014L306.835 313.403L313.914 273.26L306.035 271.871ZM298.957 312.014L291.079 310.624C290.311 314.975 286.162 317.881 281.811 317.114L280.422 324.992L279.033 332.871C292.086 335.172 304.534 326.456 306.835 313.403L298.957 312.014ZM280.422 324.992L281.811 317.114L124.242 289.33L122.853 297.208L121.463 305.086L279.033 332.871L280.422 324.992ZM122.853 297.208L124.242 289.33C124.177 289.318 124.096 289.302 123.99 289.281L122.358 297.112L120.727 304.944C120.948 304.99 121.197 305.039 121.463 305.086L122.853 297.208ZM122.358 297.112L123.466 289.189C119.517 288.637 116.678 287.889 115.046 287.209C114.199 286.855 114.108 286.696 114.36 286.921C114.588 287.124 116.001 288.487 116.001 291L108.001 291L100.001 291C100.001 294.827 102.138 297.461 103.72 298.87C105.325 300.299 107.218 301.28 108.889 301.977C112.294 303.396 116.634 304.39 121.251 305.035L122.358 297.112ZM108.001 291H116.001C116.001 293.147 114.949 294.479 114.545 294.9C114.174 295.286 114.03 295.272 114.531 295.023L110.97 287.859L107.408 280.696C106.01 281.391 104.381 282.383 103.001 283.821C101.588 285.294 100.001 287.724 100.001 291H108.001ZM110.97 287.859L118.297 284.649C117.687 283.256 117.466 281.684 117.752 280.062L109.874 278.673L101.996 277.284C101.144 282.113 101.807 286.881 103.642 291.07L110.97 287.859ZM109.874 278.673L117.752 280.062L138.59 161.885L130.712 160.496L122.833 159.107L101.996 277.284L109.874 278.673ZM130.712 160.496L138.59 161.885C139.358 157.534 143.507 154.629 147.858 155.396L149.247 147.518L150.636 139.639C137.583 137.338 125.135 146.054 122.833 159.107L130.712 160.496ZM149.247 147.518L147.858 155.396L163.443 158.144L164.832 150.266L166.221 142.387L150.636 139.639L149.247 147.518ZM164.832 150.266L167.568 142.748L132.736 130.07L130 137.588L127.264 145.105L162.096 157.783L164.832 150.266ZM130 137.588L137.518 140.324L145.726 117.771L138.208 115.035L130.69 112.299L122.482 134.852L130 137.588ZM138.208 115.035L145.726 117.771C147.237 113.619 151.828 111.478 155.98 112.989L158.716 105.472L161.452 97.9541C148.996 93.4206 135.224 99.8439 130.69 112.299L138.208 115.035ZM158.716 105.472L155.98 112.989L208.599 132.142L211.335 124.624L214.071 117.107L161.452 97.9542L158.716 105.472ZM211.335 124.624L214.071 132.142L266.691 112.989L263.955 105.472L261.219 97.9541L208.599 117.106L211.335 124.624Z" fill="black"/>
</g>
<path d="M316 148H324H316ZM316 268H324H316ZM300 284V292V284ZM100 291C100 295.418 103.582 299 108 299C112.418 299 116 295.418 116 291H108H100ZM108 138V130C103.582 130 100 133.582 100 138H108ZM108.285 138V146C111.154 146 113.802 144.464 115.228 141.975L108.285 138ZM300 132V140C304.418 140 308 143.582 308 148H316H324C324 134.745 313.255 124 300 124V132ZM316 148H308V268H316H324V148H316ZM316 268H308C308 272.418 304.418 276 300 276V284V292C313.255 292 324 281.255 324 268H316ZM300 284V276H136V284V292H300V284ZM136 284V276C127.811 276 120.129 276.822 114.261 278.289C111.388 279.007 108.496 279.99 106.13 281.388C104.299 282.471 100 285.459 100 291H108H116C116 294.608 113.268 295.755 114.271 295.162C114.738 294.886 115.947 294.36 118.141 293.811C122.407 292.745 128.725 292 136 292V284ZM108 291H116V138H108H100V291H108ZM108 138V146H108.285V138V130H108V138ZM108.285 138L115.228 141.975C114.412 143.399 113.535 143.472 114.762 142.914C115.658 142.507 117.149 142.011 119.29 141.544C123.531 140.616 129.384 140 136 140V132V124C128.511 124 121.477 124.688 115.873 125.913C113.091 126.521 110.42 127.313 108.141 128.349C106.194 129.234 103.129 130.905 101.343 134.025L108.285 138ZM136 132V140H300V132V124H136V132Z" fill="black"/>
<path d="M231.965 231.333C229.111 236.276 222.792 237.969 217.849 235.116C212.907 232.262 211.213 225.942 214.067 221" stroke="black" stroke-width="12" stroke-linecap="round"/>
<path d="M192 231.333C194.854 236.276 201.173 237.969 206.116 235.116C211.058 232.262 212.751 225.942 209.898 221" stroke="black" stroke-width="12" stroke-linecap="round"/>
<path d="M217.196 228C214.887 232 209.113 232 206.804 228L198.144 213C195.834 209 198.721 204 203.34 204L220.66 204C225.279 204 228.166 209 225.856 213L217.196 228Z" fill="black"/>
<path d="M192 188C189.331 181.024 181.832 176 173 176C164.168 176 156.669 181.024 154 188" stroke="black" stroke-width="12" stroke-linecap="round"/>
<path d="M270 188C267.331 181.024 259.832 176 251 176C242.168 176 234.669 181.024 232 188" stroke="black" stroke-width="12" stroke-linecap="round"/>
<path d="M177 214H132" stroke="black" stroke-width="12" stroke-linecap="round"/>
<path d="M176.889 214L132 234" stroke="black" stroke-width="12" stroke-linecap="round"/>
<path d="M292 234L245.778 214" stroke="black" stroke-width="12" stroke-linecap="round"/>
<path d="M246 214H292" stroke="black" stroke-width="12" stroke-linecap="round"/>
</svg>
