<svg width="1024" height="500" viewBox="0 0 1024 500" fill="none" xmlns="http://www.w3.org/2000/svg">
<rect width="1024" height="500" fill="#223355"/>
<text direction="ltr" fill="white" xml:space="preserve" style="" font-family="Yesteryear" font-size="150" letter-spacing="0em"><tspan x="470.082" y="285.511">Catima
</tspan></text>
<path d="M381.046 147.001L236.3 211.446L276.524 301.79L421.27 237.345L381.046 147.001Z" fill="#F0F0F0" stroke="#C80000" stroke-width="2"/>
<path d="M402.077 219.13L240.07 147L191.984 255.004L353.99 327.135L402.077 219.13Z" fill="#F0F0F0" stroke="#C80000" stroke-width="2"/>
<path d="M437.17 236.241L251.831 183.096L220.071 293.855L405.41 347L437.17 236.241Z" fill="#C80000" stroke="#C80000" stroke-width="6" stroke-linejoin="round"/>
<path d="M412.879 178.633H220.071V293.855H412.879V178.633Z" fill="#FF0000" stroke="#FF0000" stroke-width="6" stroke-linejoin="round"/>
<path d="M221.482 296.217C238.316 296.217 251.963 269.366 251.963 236.244C251.963 203.121 238.316 176.27 221.482 176.27C204.647 176.27 191 203.121 191 236.244C191 269.366 204.647 296.217 221.482 296.217Z" fill="#FF0000" stroke="#FF0000" stroke-width="3.44232" stroke-linejoin="round"/>
<path d="M307.256 250.444C307.256 253.187 306.289 255.842 304.526 257.944C302.763 260.045 300.316 261.458 297.614 261.934C294.913 262.41 292.13 261.92 289.755 260.548C287.379 259.177 285.563 257.012 284.625 254.435" stroke="#F0F0F0" stroke-width="2" stroke-linecap="round" stroke-linejoin="round"/>
<path d="M330.301 254.298C329.363 256.875 327.547 259.04 325.171 260.411C322.796 261.783 320.013 262.273 317.312 261.797C314.61 261.321 312.163 259.908 310.4 257.807C308.637 255.706 307.671 253.05 307.671 250.307" stroke="#F0F0F0" stroke-width="2" stroke-linecap="round" stroke-linejoin="round"/>
<path d="M248.345 225.937L266.818 207.465L285.29 225.937" stroke="#F0F0F0" stroke-width="2"/>
<path d="M329.625 225.937L348.098 207.465L366.571 225.937" stroke="#F0F0F0" stroke-width="2"/>
<text direction="ltr" fill="white" xml:space="preserve" style="" font-family="Lexend Deca" font-size="35" font-weight="200" letter-spacing="0em"><tspan x="466" y="340">Tarjeta de beneficios</tspan></text>
</svg>
